<svg width="170" height="147" viewBox="0 0 170 147" fill="none" xmlns="http://www.w3.org/2000/svg">
<g clip-path="url(#clip0_589_5748)">
<path fill-rule="evenodd" clip-rule="evenodd" d="M149.304 111.388C157.12 104.478 162.733 96.206 165.005 85.894C166.188 80.526 166.76 75.089 166.57 69.586C166.492 67.308 166.145 65.072 165.207 62.973C162.691 57.337 159.279 52.244 154.983 47.871C148.961 41.739 141.697 37.583 133.266 35.602C132.085 35.3243 130.905 35.0461 129.725 34.7678C127.928 34.3444 126.133 33.921 124.336 33.5L126.203 31C128.31 31.5115 130.421 32.0049 132.532 32.4982C132.962 32.5988 133.392 32.6993 133.822 32.8C142.723 34.882 150.416 39.23 156.83 45.65C161.503 50.328 165.277 55.759 167.884 61.88C168.654 63.689 169.092 65.702 169.337 67.664C169.989 72.884 169.328 78.069 168.546 83.229C166.645 95.785 160.329 105.815 150.846 114.021C147.842 116.62 144.33 118.254 140.566 119.4C139.834 119.623 139.095 119.826 138.29 120.048C137.879 120.161 137.452 120.279 136.999 120.406C137.909 123.022 137.489 125.455 136.803 127.845C136.473 128.993 136.045 130.16 135.42 131.168C133.586 134.124 131.169 136.597 128.105 138.226C121.673 141.647 115.012 144.525 107.764 145.799C102.123 146.79 96.447 146.909 90.758 146.469C82.495 145.83 74.361 144.382 66.343 142.295C63.3564 141.518 60.6772 140.026 58.0095 138.54C57.826 138.438 57.6425 138.336 57.459 138.234C56.0464 137.45 54.6999 136.543 53.3555 135.637C53.0391 135.424 52.7229 135.21 52.406 134.999C46.664 131.164 42.585 125.844 39.091 120.011C38.6523 119.279 38.2417 118.53 37.8135 117.749C37.6112 117.379 37.405 117.003 37.19 116.618C37.0865 116.669 36.9861 116.718 36.8878 116.766C36.5998 116.907 36.3309 117.039 36.061 117.168C35.1762 117.591 34.2938 118.021 33.4114 118.45C31.4056 119.426 29.3995 120.402 27.364 121.31C21.979 123.71 16.569 126.057 11.145 128.367C8.91798 129.315 6.63898 130.146 4.35798 130.959C4.31463 130.974 4.27107 130.99 4.22731 131.006C3.23636 131.362 2.14681 131.754 1.25997 130.783C0.465799 129.913 0.812824 128.902 1.13297 127.97C1.15386 127.91 1.17464 127.849 1.19498 127.789C1.47898 126.949 1.88898 126.138 2.34298 125.372C5.08398 120.75 7.99598 116.265 11.552 112.187C12.2113 111.431 12.8628 110.668 13.5141 109.905C15.7324 107.308 17.9481 104.715 20.462 102.38C21.075 101.811 21.6127 101.161 22.151 100.511C22.4883 100.104 22.8257 99.6963 23.182 99.308C23.5831 98.8703 24.014 98.4597 24.4734 98.0218C24.6931 97.8124 24.9194 97.5968 25.152 97.369C23.874 95.111 22.95 92.566 22.366 89.888C21.297 84.993 21.731 80.15 22.787 75.324C22.9045 74.7872 23.0183 74.249 23.1321 73.7108C23.498 71.981 23.8641 70.2499 24.353 68.556C24.993 66.339 25.717 64.124 26.652 62.018C29.845 54.825 34.301 48.456 39.725 42.776C43.502 38.82 48.201 36.223 53.182 34.113C56.246 32.814 59.41 31.879 62.735 31.446C67.168 30.869 71.468 31.439 75.667 32.793C78.107 33.579 80.12 35.16 81.994 36.877C82.7891 37.6068 83.5536 38.3693 84.3396 39.1534C84.6963 39.5091 85.0575 39.8694 85.428 40.233C85.5207 40.1298 85.6103 40.0302 85.6975 39.9332C85.994 39.6035 86.2624 39.3051 86.529 39.006C88.566 36.724 90.682 34.528 93.141 32.685C96.347 30.281 99.936 28.985 103.934 28.656C105.463 28.5298 106.985 28.4734 108.5 28.4793L107 31.369C106.056 31.3959 105.109 31.4488 104.16 31.529C100.759 31.816 97.698 32.917 94.968 34.96C92.421 36.866 90.252 39.156 88.2 41.568C88.0858 41.7022 87.9761 41.8406 87.8664 41.9789C87.6811 42.2126 87.496 42.4461 87.29 42.659C86.243 43.737 85.087 43.837 83.91 42.916C83.6281 42.6964 83.3838 42.4307 83.139 42.1644C82.9904 42.0028 82.8415 41.8409 82.684 41.689C82.3019 41.3219 81.9258 40.947 81.5498 40.572C80.6197 39.6447 79.6892 38.7171 78.666 37.906C77.483 36.969 76.166 36.047 74.756 35.58C71.756 34.588 68.655 33.977 65.44 34.143C61.711 34.334 58.156 35.203 54.727 36.642C49.33 38.904 44.368 41.795 40.457 46.276C36.526 50.78 33.049 55.583 30.342 60.926C28.79 63.988 27.429 67.112 26.735 70.502C26.4827 71.7319 26.1725 72.9501 25.8622 74.1688C25.6916 74.8387 25.521 75.5088 25.36 76.181C24.434 80.044 23.921 83.956 24.285 87.928C24.607 91.436 25.045 94.936 26.815 98.082C26.7031 98.3274 26.603 98.5804 26.503 98.8327C26.2813 99.3928 26.0606 99.95 25.716 100.416C24.748 101.726 23.732 103.03 22.559 104.151C19.236 107.328 16.301 110.834 13.451 114.422C13.0344 114.947 12.6078 115.465 12.1813 115.983C11.2348 117.132 10.2882 118.281 9.44997 119.505C8.22368 121.295 7.07841 123.14 5.93331 124.985C5.44427 125.773 4.95526 126.561 4.45998 127.344L4.48956 127.378C4.57787 127.479 4.66683 127.58 4.75498 127.682C4.90837 127.627 5.06288 127.575 5.21737 127.523C5.54633 127.412 5.8752 127.301 6.19297 127.166C7.85905 126.454 9.52604 125.744 11.193 125.034C16.0655 122.96 20.9379 120.885 25.787 118.757C26.0535 118.64 26.3201 118.523 26.5868 118.407C29.9349 116.942 33.2876 115.475 36.359 113.442C37.81 112.482 38.865 112.893 39.653 114.504C39.7828 114.769 39.9114 115.035 40.04 115.301C40.5994 116.457 41.1596 117.614 41.819 118.712C45.189 124.314 49.18 129.369 54.768 132.965C55.1441 133.207 55.5154 133.459 55.8866 133.71C56.7393 134.289 57.592 134.867 58.504 135.328C59.1813 135.671 59.8553 136.032 60.5302 136.393C62.6115 137.506 64.7016 138.624 66.924 139.249C75.354 141.62 83.991 142.929 92.744 143.565C104.869 144.446 116.066 141.466 126.531 135.593C130.627 133.293 133.775 129.992 134.358 124.929C134.52 123.521 134.531 122.261 133.663 121.021C132.931 119.976 133.263 118.856 134.357 118.179C134.84 117.88 135.407 117.695 135.958 117.532C136.548 117.358 137.142 117.201 137.737 117.045C138.364 116.879 138.992 116.713 139.614 116.528C143.187 115.466 146.484 113.881 149.304 111.388Z" fill="#B9BABA"/>
</g>
<g clip-path="url(#clip1_589_5748)">
<path fill-rule="evenodd" clip-rule="evenodd" d="M134.439 17.331C130.642 24.246 126.478 30.945 121.42 37.12C118.584 36.828 116.607 35.069 114.524 33.613C112.941 32.506 111.552 31.107 110.144 29.768C109.039 28.716 109.021 28.294 109.922 27.062C111.411 25.023 112.904 22.987 114.477 21.013C117.853 16.778 121.263 12.569 124.696 8.38C125.593 7.286 126.625 6.303 127.592 5.267C127.951 4.883 128.465 4.551 128.625 4.096C129.057 2.873 129.9 2.895 130.897 3.121C131.358 3.226 131.827 3.296 132.292 3.384C134.513 3.804 136.1 5.445 136.222 7.683C136.404 11.03 136.052 14.393 134.439 17.331ZM118.52 41.274C114.41 46.812 110.311 52.358 106.172 57.874C103.329 61.663 100.465 65.438 97.54 69.164C94.186 73.435 90.552 77.458 86.423 81.005C84.532 82.629 82.37 83.648 79.811 83.563C78.145 83.508 77.936 83.253 78.351 81.669C79.433 77.533 80.922 73.547 82.869 69.734C84.377 66.782 85.787 63.778 87.351 60.855C91.227 53.611 95.318 46.5 100.419 40.014C102.337 37.575 104.08 35 105.916 32.497C106.318 31.949 106.777 31.445 107.32 30.787C110.915 34.576 114.58 37.925 119.569 39.724C119.208 40.26 118.885 40.783 118.52 41.274ZM118.916 56.022C120.538 53.191 122.096 50.319 123.816 47.549C125.424 44.958 127.033 42.335 128.952 39.978C133.106 34.875 137.482 29.953 141.708 24.908C142.542 23.913 143.233 22.753 143.775 21.571C144.759 19.426 144.288 18.643 141.959 18.314C140.722 18.139 139.67 17.616 139.17 16.501C138.512 15.034 138.353 13.413 138.391 11.808C138.422 10.498 138.733 9.182 138.661 7.883C138.455 4.161 136.151 1.636 132.514 0.912997C131.958 0.802997 131.362 0.674997 130.898 0.377997C130.099 -0.131003 129.391 -0.0340033 128.707 0.478997C127.529 1.362 126.305 2.203 125.237 3.207C121.394 6.818 117.855 10.728 114.585 14.858C111.056 19.316 107.732 23.936 104.21 28.399C100.55 33.038 97.209 37.887 94.095 42.902C92.124 46.077 90.081 49.208 88.072 52.359C87.365 53.468 86.601 54.546 85.971 55.697C83.04 61.052 80.164 66.438 77.234 71.793C74.664 76.492 74.536 81.39 75.922 86.495C75.82 86.678 75.691 86.906 75.565 87.134C75.438 87.365 75.291 87.587 75.192 87.83C74.845 88.672 75.009 89.42 75.608 89.805C76.216 90.195 76.972 90.024 77.551 89.324C78.186 88.558 78.801 87.773 79.412 86.987C79.819 86.463 80.289 86.212 81.001 86.157C83.827 85.94 86.228 84.731 88.372 82.896C94.257 77.857 99.077 71.862 103.675 65.699C109.847 57.428 115.871 49.045 121.896 40.666C125.122 36.18 128.257 31.627 131.355 27.052C132.889 24.787 134.246 22.402 135.676 20.068C135.785 19.89 135.844 19.682 135.957 19.413C137.042 20.358 137.869 21.079 138.845 21.93C138.311 22.789 137.914 23.528 137.423 24.201C135.562 26.752 133.679 29.288 131.787 31.815C131.283 32.488 130.742 33.138 130.174 33.757C127.578 36.591 124.856 39.319 122.391 42.261C119.723 45.444 117.288 48.822 114.751 52.115C114.333 52.657 113.871 53.17 113.503 53.744C112.754 54.912 113.083 55.887 114.358 56.389C114.993 56.638 115.629 56.897 116.283 57.087C117.577 57.464 118.264 57.16 118.916 56.022Z" fill="#B9BABA"/>
<path fill-rule="evenodd" clip-rule="evenodd" d="M105.759 100.63C104.22 99.909 102.719 99.304 101.042 98.978C99.229 98.626 97.7 99.009 96.321 100.128C95.566 100.742 94.878 101.351 93.796 100.905C92.815 100.501 92.103 99.862 91.745 98.856C91.603 98.46 91.485 98.057 91.358 97.656C90.853 96.058 90.452 95.779 88.781 95.606C87.059 95.429 85.767 96.271 84.462 97.208C82.003 98.978 78.675 97.845 77.736 94.976C77.426 94.028 77.123 93.068 76.698 92.171C76.273 91.275 75.54 90.97 74.774 91.183C74.051 91.385 73.648 92.083 74.109 92.62C74.954 93.605 74.973 94.857 75.447 95.949C75.839 96.85 76.227 97.85 76.905 98.512C79.296 100.848 83.279 100.774 85.742 98.491C86.126 98.134 86.491 97.706 86.95 97.489C87.546 97.208 88.218 97.036 88.875 96.945C89.473 96.861 89.85 97.215 89.947 97.845C90.051 98.519 90.136 99.204 90.325 99.856C90.821 101.565 92.058 102.531 93.666 103.159C95.183 103.752 96.435 103.434 97.543 102.303C97.688 102.155 97.883 102.056 98.056 101.937C98.785 101.432 99.551 101.305 100.449 101.459C101.868 101.704 103.202 102.073 104.411 102.901C104.964 103.28 105.622 103.57 106.273 103.728C109.338 104.471 112.387 104.515 115.7 103.213C113.998 102.854 112.568 102.603 111.167 102.241C109.343 101.771 107.445 101.418 105.759 100.63Z" fill="#B9BABA"/>
</g>
<defs>
<clipPath id="clip0_589_5748">
<rect width="170" height="119" fill="white" transform="translate(0 28)"/>
</clipPath>
<clipPath id="clip1_589_5748">
<rect width="72" height="105" fill="white" transform="translate(73)"/>
</clipPath>
</defs>
</svg>
